<svg xmlns="http://www.w3.org/2000/svg" xmlns:xlink="http://www.w3.org/1999/xlink" viewBox="0 0 1920 1080"><defs><style>.cls-1{fill:url(#Gradiente_sem_nome_77);}.cls-2{fill:#cc6a62;}.cls-2,.cls-3,.cls-4{opacity:0.17;}.cls-3{fill:#349c88;}.cls-4{fill:#54a275;}.cls-5{fill:#5ba47b;opacity:0.19;}.cls-6{opacity:0.25;}.cls-7{fill:#364d5f;}.cls-8{fill:#508eb8;}.cls-9{fill:#eff2f3;}.cls-10{fill:#40586d;}.cls-11{fill:#e0bfb7;}.cls-12{fill:#f3e3e0;}</style><linearGradient id="Gradiente_sem_nome_77" x1="960" x2="960" y2="1080" gradientUnits="userSpaceOnUse"><stop offset="0" stop-color="#fff"/><stop offset="0.58" stop-color="#fff4dc"/><stop offset="1" stop-color="#fff"/></linearGradient></defs><title>BackProcurar</title><g id="back"><rect class="cls-1" width="1920" height="1080"/></g><g id="Ilustracao"><polygon class="cls-2" points="1189 1067 1510 565 1792 1076 1189 1067"/><polygon class="cls-3" points="1510 563 1647.97 1071.85 1792 1074 1510 563"/><polygon class="cls-4" points="1570 1072.05 1750.99 789 1910 1077.13 1570 1072.05"/><polygon class="cls-5" points="1056 1070.48 1181.63 874.01 1292 1074 1056 1070.48"/><g class="cls-6"><path class="cls-7" d="M173.14,577.1s11.94-13.24,8-18.19S164,550.41,161,549s-10-10-18-12c-7.68-1.92-10.2,3.33-16.12,4S101.64,529,90,551s-.67,28.2-14.39,35.43S58.47,588.8,60.33,599s10.79,19.53,1.52,27.72S27.91,655,40,665.67s32.94-6.48,31.61,7.26-8.34,19.62-1.95,26.18,13.22-2.5,13.93,11S80.37,735.79,88,736.33s16.14-3.39,18.7,0,8.19,13.79,13.08,10.23S140,601.62,140,601.62Z"/><path class="cls-8" d="M143,1002.5s-5.87,39.17-.44,39.17,70.32,2.67,74.88,0,5.22-13.31-14.78-19-24.77-5.84-28.07-16.68-15.93-18-15.93-18Z"/><path class="cls-8" d="M79.29,976.5l-22,18.65S75,1057,83.5,1057.25s12.16-9.25,10.64-20.36-2.71-37.61-.5-40.08S79.29,976.5,79.29,976.5Z"/><path class="cls-8" d="M115.06,645.43s-6.16,23-4.44,37.57,8.4,56.9,9.16,63.56S121.44,764,120.94,769A96.5,96.5,0,0,1,119,780h65s1-45.38,0-50.67-4.33-30.66-6.5-39.76-6-21.3-10.23-26.28S150,648.54,150,648.54s-3.49,6.63-9.09,7.92-13.39,1-16.56-1.16S115.06,645.43,115.06,645.43Z"/><path class="cls-7" d="M184,780s-9.87,72.61-10.63,82.08S171.66,907,171.59,920s-.31,75.15-.31,75.15,2.21,7.36-7.28,7.35-21,2.5-21,0,.73-28.38-.86-51.15-.37-39.36-3.5-59.55-10.81-58-13.46-68.59-7.64-30-6.91-36.59L119,780Z"/><path class="cls-7" d="M118.19,784s-2.91,52.26,0,75,5.73,50,5.53,53.49,0,7.08-3.41,11.82S83.47,970.42,82,972.23s-2.33,2.23-2.66,4.27-.76,8.07,3.1,12.75,8.89,10.17,11.25,7.55,19.91-22.48,24.55-28.49,22.43-30.66,22.43-30.66L154.25,875Z"/><polygon class="cls-7" points="238 709.06 238.67 621.61 249 630.67 255.67 621.79 262.33 629.67 270.33 621.79 277.33 630 283.5 621.61 290.33 629.33 295.67 621.79 301.31 627.87 307.5 621.61 307.5 718.33 238 718.33 238 709.06"/><path class="cls-9" d="M384.53,601.62A214.1,214.1,0,0,0,375,637.33c-3.6,20.34-2.89,70-2.89,70l.51,65.64s84.5,3,84.48-1-1.42-90.62-5.27-115.9S440,593.9,440,593.9s-3.27-12.67-5.2-17.17-6.33-13.38-6.33-13.38-4.09,21.91-18.32,28.39S387.05,601.57,384.53,601.62Z"/><path class="cls-10" d="M346.85,995l-7.35,18s-36.5,5-40,12.5,5.6,13.26,36.46,9.85S376.5,1031,376.5,1031l3.5-36S351.93,982.57,346.85,995Z"/><path class="cls-10" d="M411.33,986.88s1.29,24,0,22.79-25.27,25.7-26.63,33.19,11.57,6.26,27.21,0,29-10.86,30.59-17.35,6.17-29.42,3.5-38.62S414,975.42,411.33,986.88Z"/><path class="cls-7" d="M372.62,773s21.36,64.68,24.7,79.59,5.82,43.67,9.19,69.41,4.82,64.88,4.82,64.88,33.67,7,34.67,0,4-130.51,4-139.21S457.09,772,457.09,772Z"/><path class="cls-7" d="M372.62,773s-24,89.16-24.83,98.75S346.85,995,346.85,995s32.15,7,33.15,0-.93-81.81,1-87.65,19-39,19-39S384.57,772.33,372.62,773Z"/><path class="cls-7" d="M349.21,536s-21.42-2.89-21.8-8.94,2.95-8.3,6.79-15.92.24-17.43,7.89-24.08,19.88-10.59,24.11-16.35,7.77-16,18.34-12,16.42,3.47,22,10.4,8,9.77,12.47,11.6,10.27,4.17,9.52,11.76-.32,15.14,3.56,18.08,7.86,5.89,5.07,13.12-6.27,7.1-4.7,12.3,6.22,4.15,3.44,7.35-12.81,10.08-13.65,9.16S352.91,525.5,349.21,536Z"/><path class="cls-11" d="M384.53,601.62s2.29-23.61,1.88-27.86L386,569.5s-13.29,7.22-16.39,4.86-21.07-19.5-20.28-33.15-3.77-23.9,10.12-38.05,24.18-7.93,34,0a35.71,35.71,0,0,1,12.06,17.68s4.56-9.74,6.73-10.46,4.64.39,4.47,4-2.48,15.82-5.24,15.82,1.16,7.22,2.19,9.49S428.75,562,428.5,563.35s-5.08,20.83-15.07,26.31S388.22,602.24,384.53,601.62Z"/><path class="cls-11" d="M404.86,672.93l-2.42,37.2-86.94-8.55L299,694s-1.08,2.88,1.48,6.68,3.61,7,1.39,10.81-4.14,6.33-5.76,6.59-14.61.06-14.61.06-3.1,4.42,9.6,7,19.68,5.86,24.55,0,7.86-7.7,13.11-6.78,76.75,16.17,81.75,16.92,10.25,1.75,11.25,0,6.89-24,6.75-36.14-.57-24.23-.57-24.23Z"/><path class="cls-12" d="M122.5,591.45s.83,7.29,1.33-5.42,6.95-16.86,11.92-18.14,17.74-3.77,26.83,0,16.54,8.44,12.82,44.77c-3.07,8.94-6.48,17.83-18.08,18.57l-11.59.74s-2.58.22-2.58,2,.49,9.26,2.27,11.46a11.17,11.17,0,0,0,4.59,3.12s-6.13,11.76-22.56,8.11c-4.94-2.49-12.9-9.2-12.38-11.23s2.34-9.23,4.38-13.38,4.84-10.16,4.92-12.1-1.7-16.89-1.73-18.33-6.82-1.32-7.6-7.28S116,584.57,122.5,591.45Z"/><path class="cls-12" d="M143.15,710.12l17.67-16.38L181.27,731s2,2.94,3.9,3.6,17.91-3.92,24.54-7S225,720.74,230,716.36s22.7-21,22.7-21,4.29-3.57,4.94-2.7-.19,5.05-1.63,7.38l-1.44,2.33s1.25,2.86,5.69,2.08,7.36-4.21,11.81-1.85,9.12,4.26,3.15,9.66-17.9,10.57-21.94,11.4-9,1.13-9.94.63l-.94-.5S205,745,200.67,747s-16.16,7.14-20.12,7.3-5.8.26-8.52-3.2-19.28-26.47-19.28-26.47Z"/><path class="cls-12" d="M179.81,703.93s33.44-11.28,38.69-14.36,12.25-8.83,15.25-10.58,4.25,0,4.25,0v30.06s-9.27-4.2-11.39-7.13-6.93-.18-16,4.07-27.52,14-27.52,14Z"/></g></g></svg>